<svg xmlns="http://www.w3.org/2000/svg" width="14.287" height="12.5" viewBox="0 0 14.287 12.5"><defs><style>.a{fill:#333;}</style></defs><g transform="translate(-63.184 8.063)"><path class="a" d="M22.466,10.886a3.274,3.274,0,0,0,0-1.189l.72-.416a.2.2,0,0,0,.092-.237,4.188,4.188,0,0,0-.927-1.6A.2.2,0,0,0,22.1,7.4l-.72.416a3.276,3.276,0,0,0-1.03-.594V6.393a.2.2,0,0,0-.159-.2,4.211,4.211,0,0,0-1.848,0,.2.2,0,0,0-.159.2v.832a3.277,3.277,0,0,0-1.03.594l-.72-.416a.2.2,0,0,0-.251.039,4.188,4.188,0,0,0-.927,1.6.206.206,0,0,0,.092.237l.72.416a3.274,3.274,0,0,0,0,1.189l-.72.416a.2.2,0,0,0-.092.237,4.209,4.209,0,0,0,.927,1.6.2.2,0,0,0,.251.039l.72-.416a3.277,3.277,0,0,0,1.03.594v.832a.2.2,0,0,0,.159.2,4.211,4.211,0,0,0,1.848,0,.2.2,0,0,0,.159-.2v-.832a3.277,3.277,0,0,0,1.03-.594l.72.416a.2.2,0,0,0,.251-.039,4.188,4.188,0,0,0,.927-1.6.206.206,0,0,0-.092-.237Zm-3.2.759a1.354,1.354,0,1,1,1.354-1.354A1.355,1.355,0,0,1,19.27,11.645Zm-4.912-3.14c.053,0,.1-.014.156-.017a5.145,5.145,0,0,1,1.013-1.652,1.1,1.1,0,0,1,.807-.352,1.073,1.073,0,0,1,.547.148l.22.128.067-.039a3.089,3.089,0,0,0,.313-1.34,3.124,3.124,0,1,0-3.123,3.123Zm2.936,5.428c-.064-.033-.128-.073-.19-.109a1.379,1.379,0,0,1-.767.273,1.109,1.109,0,0,1-.807-.352A5.089,5.089,0,0,1,14.409,11.8a1.191,1.191,0,0,1,.72-1.4q0-.109,0-.218l-.22-.128a1.137,1.137,0,0,1-.273-.226c-.092.006-.181.017-.273.017A4.406,4.406,0,0,1,12.449,9.4h-.232A3.216,3.216,0,0,0,9,12.614v.8a1.34,1.34,0,0,0,1.34,1.34h7.128a1.075,1.075,0,0,1-.173-.567Z" transform="translate(54.184 -10.32)"/></g></svg>