<svg xmlns="http://www.w3.org/2000/svg" width="16.055" height="16.379" viewBox="0 0 16.055 16.379"><g transform="translate(0.05 0.018)"><path d="M279.966,224.764a9.629,9.629,0,0,0-.141-1.664H272.1v3.153h4.423a3.79,3.79,0,0,1-1.637,2.488v2.046h2.639A8,8,0,0,0,279.966,224.764Z" transform="translate(-263.961 -216.405)" fill="#4285f4"/><path d="M36.218,330.92a7.839,7.839,0,0,0,5.428-1.977L39.007,326.9a4.967,4.967,0,0,1-7.384-2.6H28.9v2.109A8.19,8.19,0,0,0,36.218,330.92Z" transform="translate(-28.079 -314.559)" fill="#34a853"/><path d="M3.541,155.245a4.905,4.905,0,0,1,0-3.135V150H.821a8.2,8.2,0,0,0,0,7.354Z" transform="translate(0 -145.504)" fill="#fbbc04"/><path d="M36.218,3.223a4.45,4.45,0,0,1,3.141,1.228L41.7,2.113a7.871,7.871,0,0,0-5.479-2.13A8.188,8.188,0,0,0,28.9,4.5l2.72,2.109a4.9,4.9,0,0,1,4.6-3.382Z" transform="translate(-28.079 0)" fill="#ea4335"/></g></svg>