<svg xmlns="http://www.w3.org/2000/svg" width="11.65" height="10.355" viewBox="0 0 11.65 10.355"><defs><style>.a{fill:#5ca017;}</style></defs><path class="a" d="M10.208,6.472H4.279l.132.647H9.84a.485.485,0,0,1,.473.593L10.2,8.2a1.133,1.133,0,1,1-1.286.21H4.676A1.133,1.133,0,1,1,3.32,8.241L1.9,1.294H.485A.485.485,0,0,1,0,.809V.485A.485.485,0,0,1,.485,0H2.559a.485.485,0,0,1,.476.388l.185.906h7.944a.485.485,0,0,1,.473.593l-.956,4.207A.485.485,0,0,1,10.208,6.472ZM8.252,3.4H7.281V2.589a.324.324,0,0,0-.324-.324H6.634a.324.324,0,0,0-.324.324V3.4H5.34a.324.324,0,0,0-.324.324v.324a.324.324,0,0,0,.324.324H6.31v.809a.324.324,0,0,0,.324.324h.324a.324.324,0,0,0,.324-.324V4.369h.971a.324.324,0,0,0,.324-.324V3.721A.324.324,0,0,0,8.252,3.4Z"/></svg>