<svg xmlns="http://www.w3.org/2000/svg" width="21.923" height="21.923" viewBox="0 0 21.923 21.923"><defs><style>.a{fill:#6B9D35;}</style></defs><path class="a" d="M19.122,0H2.8A2.8,2.8,0,0,0,0,2.8v16.32a2.8,2.8,0,0,0,2.8,2.8h16.32a2.8,2.8,0,0,0,2.8-2.8V2.8A2.8,2.8,0,0,0,19.122,0Zm1.51,19.122a1.512,1.512,0,0,1-1.51,1.51H2.8a1.512,1.512,0,0,1-1.51-1.51V16.767l4.25-3.616a.417.417,0,0,1,.538,0l2.662,2.211a.646.646,0,0,0,.869-.041l6.326-6.335a.418.418,0,0,1,.62.032l4.075,5.018v5.09Zm0-7.138L17.559,8.2a1.709,1.709,0,0,0-2.536-.13L9.113,13.988,6.9,12.154a1.706,1.706,0,0,0-2.2.013l-3.413,2.9V2.8A1.512,1.512,0,0,1,2.8,1.291h16.32a1.512,1.512,0,0,1,1.51,1.51Z"/><g transform="translate(3.788 2.697)"><path class="a" d="M91.574,62.995a3.113,3.113,0,1,0,3.114,3.114A3.117,3.117,0,0,0,91.574,62.995Zm0,4.936A1.822,1.822,0,1,1,93.4,66.108,1.824,1.824,0,0,1,91.574,67.931Z" transform="translate(-88.461 -62.995)"/></g></svg>