<svg xmlns="http://www.w3.org/2000/svg" width="9.247" height="20.928" viewBox="0 0 9.247 20.928"><defs><style>.a{fill:#6B9D35;}</style></defs><path class="a" d="M40.109,18.67l-.292,1.2q-1.316.519-2.1.791a5.539,5.539,0,0,1-1.821.272,3.635,3.635,0,0,1-2.477-.777,2.515,2.515,0,0,1-.884-1.974,6.98,6.98,0,0,1,.066-.95q.067-.486.214-1.1l1.1-3.88q.146-.557.247-1.057a4.592,4.592,0,0,0,.1-.909,1.407,1.407,0,0,0-.307-1.037,1.733,1.733,0,0,0-1.173-.293,3.073,3.073,0,0,0-.872.133c-.3.088-.553.173-.767.252l.293-1.2q1.077-.439,2.061-.751a6.165,6.165,0,0,1,1.864-.313,3.546,3.546,0,0,1,2.44.765,2.538,2.538,0,0,1,.857,1.987c0,.169-.019.466-.059.89a5.956,5.956,0,0,1-.22,1.17l-1.092,3.865a10.268,10.268,0,0,0-.24,1.065,5.48,5.48,0,0,0-.107.9,1.3,1.3,0,0,0,.344,1.05,1.941,1.941,0,0,0,1.194.279,3.448,3.448,0,0,0,.9-.14A5.049,5.049,0,0,0,40.109,18.67Zm.277-16.226a2.262,2.262,0,0,1-.764,1.721,2.6,2.6,0,0,1-1.839.712,2.629,2.629,0,0,1-1.848-.712,2.257,2.257,0,0,1-.771-1.721A2.279,2.279,0,0,1,35.935.717a2.728,2.728,0,0,1,3.687,0A2.283,2.283,0,0,1,40.386,2.444Z" transform="translate(-31.139)"/></svg>