<svg xmlns="http://www.w3.org/2000/svg" width="34.974" height="27.688" viewBox="0 0 34.974 27.688"><defs><style>.a{fill:#5ca017;}</style></defs><path class="a" d="M9.6,18.581a2.55,2.55,0,1,1-2.55-2.55A2.55,2.55,0,0,1,9.6,18.581Z" transform="translate(-4.5 -4.738)"/><path class="a" d="M9.6,9.863a2.55,2.55,0,1,1-2.55-2.55A2.55,2.55,0,0,1,9.6,9.863Z" transform="translate(-4.5 -7.312)"/><path class="a" d="M9.6,27.3a2.55,2.55,0,1,1-2.55-2.55A2.55,2.55,0,0,1,9.6,27.3Z" transform="translate(-4.5 -2.163)"/><path class="a" d="M35.7,16.875H13.8a1.457,1.457,0,1,0,0,2.914H35.7a1.457,1.457,0,1,0,0-2.914Z" transform="translate(-2.185 -4.488)"/><path class="a" d="M35.7,25.594H13.8a1.457,1.457,0,1,0,0,2.914H35.7a1.457,1.457,0,1,0,0-2.914Z" transform="translate(-2.185 -1.914)"/><path class="a" d="M13.8,11.071H35.7a1.457,1.457,0,1,0,0-2.914H13.8a1.457,1.457,0,1,0,0,2.914Z" transform="translate(-2.185 -7.063)"/></svg>