<svg xmlns="http://www.w3.org/2000/svg" width="12.829" height="17.712" viewBox="0 0 12.829 17.712"><defs><style>.a{fill:#487916;}</style></defs><g transform="translate(-3833 -3881)"><g transform="translate(3833 3881)"><g transform="translate(0 0)"><path class="a" d="M76.988,0a6.422,6.422,0,0,0-6.415,6.415c0,4.39,5.741,10.834,5.985,11.106a.578.578,0,0,0,.86,0C77.662,17.248,83.4,10.8,83.4,6.415A6.422,6.422,0,0,0,76.988,0Zm0,9.642a3.227,3.227,0,1,1,3.227-3.227A3.227,3.227,0,0,1,76.988,9.642Z" transform="translate(-70.573 0)"/></g></g></g></svg>