<svg xmlns="http://www.w3.org/2000/svg" width="22.732" height="23.888" viewBox="0 0 22.732 23.888"><defs><style>.a{fill:#7e7e7e;}</style></defs><path class="a" d="M10.679,0H10.5A1.309,1.309,0,0,0,9.187,1.287v1.24L5.448,1.437a.409.409,0,0,0-.509.283L.073,18.488A.417.417,0,0,0,.359,19l16.768,4.868a.416.416,0,0,0,.515-.28l.519-1.786h4.2a.429.429,0,0,0,.426-.421V3.924a.406.406,0,0,0-.426-.394H12.594l-.6-.2V1.287A1.306,1.306,0,0,0,10.679,0Zm-.661,1.287A.478.478,0,0,1,10.5.831h.175a.474.474,0,0,1,.481.456v1.8l-1.142-.319ZM18.4,20.974,21.958,8.757V20.974ZM21.958,4.361V6.224l-6.5-1.863Zm-.352,2.626-4.641,15.97L.992,18.321,5.637,2.351l5.523,1.6V6.785a.467.467,0,1,1-.934,0V5.06a.415.415,0,0,0-.831,0V6.785a1.3,1.3,0,0,0,2.6,0V4.193Zm0,0" transform="translate(-0.057)"/></svg>