<svg xmlns="http://www.w3.org/2000/svg" width="14.85" height="16.055" viewBox="0 0 14.85 16.055"><defs><style>.a{fill:#487916;}</style></defs><g transform="translate(-19.214)"><path class="a" d="M0,0H3.638V.941H0Z" transform="matrix(0.6, -0.8, 0.8, 0.6, 28.701, 13.419)"/><path class="a" d="M315.837,336.568h.941v.941h-.941Z" transform="translate(-287.322 -326.014)"/><path class="a" d="M393.064,410.759H394v.941h-.941Z" transform="translate(-362.127 -397.879)"/><path class="a" d="M30.2,8.32c-.086,0-.171,0-.255.009L29.668,3.66H27.442V2.752a2.752,2.752,0,0,0-5.5,0V3.66H19.712l-.494,8.463a2.372,2.372,0,0,0,2.368,2.511H27.2A3.867,3.867,0,1,0,30.2,8.32ZM22.879,2.752a1.812,1.812,0,0,1,3.623,0V3.66H22.879ZM21.586,13.693a1.432,1.432,0,0,1-1.429-1.515L20.6,4.6h1.338V5.78h.941V4.6H26.5V5.78h.941V4.6h1.338l.228,3.906a3.867,3.867,0,0,0-2.375,5.186Zm8.61,1.422a2.927,2.927,0,1,1,2.927-2.927A2.93,2.93,0,0,1,30.2,15.114Z" transform="translate(0)"/></g></svg>