<svg xmlns="http://www.w3.org/2000/svg" width="39.002" height="39.002" viewBox="0 0 39.002 39.002"><defs><style>.a{fill:#1ea781;}</style></defs><g transform="translate(-163.999 -271.999)"><path class="a" d="M10927.5-13731a19.383,19.383,0,0,1-7.59-1.532,19.474,19.474,0,0,1-6.2-4.18,19.474,19.474,0,0,1-4.18-6.2,19.383,19.383,0,0,1-1.532-7.59,19.383,19.383,0,0,1,1.532-7.59,19.474,19.474,0,0,1,4.18-6.2,19.474,19.474,0,0,1,6.2-4.18,19.383,19.383,0,0,1,7.59-1.532,19.383,19.383,0,0,1,7.59,1.532,19.474,19.474,0,0,1,6.2,4.18,19.474,19.474,0,0,1,4.18,6.2,19.383,19.383,0,0,1,1.532,7.59,19.383,19.383,0,0,1-1.532,7.59,19.474,19.474,0,0,1-4.18,6.2,19.474,19.474,0,0,1-6.2,4.18A19.383,19.383,0,0,1,10927.5-13731Zm-6.221-13.377a.329.329,0,0,0-.328.328v.55h12.248v-.55a.329.329,0,0,0-.329-.328h-.546v-12.469a.656.656,0,0,0-.656-.656h-9.186a.656.656,0,0,0-.656.656v12.469Zm6.67,0h-1.748v-2.295a.325.325,0,0,1,.328-.328h1.092a.325.325,0,0,1,.328.328v2.294Zm1.424-4.375h-1.1a.329.329,0,0,1-.328-.328v-1.093a.329.329,0,0,1,.328-.328h1.1a.329.329,0,0,1,.328.328v1.093A.329.329,0,0,1,10929.373-13748.751Zm-3.5,0h-1.095a.329.329,0,0,1-.329-.328v-1.093a.329.329,0,0,1,.329-.328h1.095a.329.329,0,0,1,.329.328v1.093A.329.329,0,0,1,10925.872-13748.751Zm3.5-2.623h-1.1a.329.329,0,0,1-.328-.328v-1.1a.329.329,0,0,1,.328-.328h1.1a.329.329,0,0,1,.328.328v1.1A.329.329,0,0,1,10929.373-13751.374Zm-3.5,0h-1.095a.329.329,0,0,1-.329-.328v-1.1a.329.329,0,0,1,.329-.328h1.095a.329.329,0,0,1,.329.328v1.1A.329.329,0,0,1,10925.872-13751.374Zm3.5-2.627h-1.1a.329.329,0,0,1-.328-.328v-1.092a.329.329,0,0,1,.328-.328h1.1a.329.329,0,0,1,.328.328v1.092A.329.329,0,0,1,10929.373-13754Zm-3.5,0h-1.095a.329.329,0,0,1-.329-.328v-1.092a.329.329,0,0,1,.329-.328h1.095a.329.329,0,0,1,.329.328v1.092A.329.329,0,0,1,10925.872-13754Z" transform="translate(-10744 14042)"/></g></svg>