<svg xmlns="http://www.w3.org/2000/svg" width="35.998" height="36.356" viewBox="0 0 35.998 36.356"><defs><style>.a{fill:#5ca017;}</style></defs><path class="a" d="M23.523,36.356a.716.716,0,0,1-.713-.714V23.523h2.852V35.643a.716.716,0,0,1-.713.714Zm-19.248,0A1.424,1.424,0,0,1,2.849,34.93V23.523H5.7v7.13h8.555v-7.13h2.851V34.93a1.424,1.424,0,0,1-1.426,1.426ZM1.428,22.1A1.426,1.426,0,0,1,.243,19.879l3.8-5.7a1.419,1.419,0,0,1,1.185-.633H23.283a1.433,1.433,0,0,1,1.19.633l3.8,5.7A1.428,1.428,0,0,1,27.088,22.1ZM32.2,17.168l-7.421-7.42A5,5,0,0,1,18.326,3.8a.417.417,0,0,1,.7-.192l2.588,2.588L23.977,5.8l.393-2.363L21.782.85a.419.419,0,0,1,.2-.7,4.988,4.988,0,0,1,5.939,6.444l7.428,7.427a2.227,2.227,0,1,1-3.15,3.15Zm.739-1.575a.836.836,0,1,0,.835-.835A.836.836,0,0,0,32.935,15.593Z" transform="translate(0 0)"/></svg>