<svg xmlns="http://www.w3.org/2000/svg" width="21.614" height="21.614" viewBox="0 0 21.614 21.614"><defs><style>.a{fill:#7e7e7e;}</style></defs><path class="a" d="M16.548,21.614H5.066A5.072,5.072,0,0,1,0,16.548V9.625A5.072,5.072,0,0,1,5.066,4.559H16.548a5.072,5.072,0,0,1,5.066,5.066v6.923A5.072,5.072,0,0,1,16.548,21.614ZM5.066,6.248A3.381,3.381,0,0,0,1.689,9.625v6.923a3.381,3.381,0,0,0,3.377,3.377H16.548a3.381,3.381,0,0,0,3.377-3.377V9.625a3.381,3.381,0,0,0-3.377-3.377ZM8.528,2.533a2.533,2.533,0,0,0-5.066,0,.844.844,0,0,0,1.689,0,.844.844,0,1,1,1.689,0,.844.844,0,0,0,1.689,0Zm9.71,0a2.533,2.533,0,1,0-5.066,0,.844.844,0,1,0,1.689,0,.844.844,0,1,1,1.689,0,.844.844,0,0,0,1.689,0Zm-6.543,10.68V9.752a.844.844,0,0,0-1.689,0v3.462a.844.844,0,0,0,1.689,0Zm-.844,2.069A1.055,1.055,0,1,0,11.9,16.337,1.055,1.055,0,0,0,10.849,15.282Z"/></svg>