<svg xmlns="http://www.w3.org/2000/svg" width="19" height="19" viewBox="0 0 19 19"><defs><style>.a{fill:#fff;stroke:#4a7b19;}.b{fill:#4a7b19;}.c{stroke:none;}.d{fill:none;}</style></defs><g transform="translate(-1224 -18)"><g class="a" transform="translate(1224 18)"><circle class="c" cx="9.5" cy="9.5" r="9.5"/><circle class="d" cx="9.5" cy="9.5" r="9"/></g><g transform="translate(1229 9.824)"><path class="b" d="M132.385,18.2a2.395,2.395,0,1,0-2.4-2.4A2.4,2.4,0,0,0,132.385,18.2Zm0-4.164a1.766,1.766,0,1,1-1.766,1.766A1.771,1.771,0,0,1,132.385,14.04Z" transform="translate(-127.92 0)"/><path class="b" d="M.316,344.251H8.645a.314.314,0,0,0,.316-.316,3.013,3.013,0,0,0-3.009-3.009H3.009A3.013,3.013,0,0,0,0,343.935.314.314,0,0,0,.316,344.251Zm2.693-2.693H5.952a2.375,2.375,0,0,1,2.354,2.06H.655A2.381,2.381,0,0,1,3.009,341.559Z" transform="translate(0 -322.302)"/></g></g></svg>