<svg xmlns="http://www.w3.org/2000/svg" width="22" height="19.25" viewBox="0 0 22 19.25"><defs><style>.a{fill:#6b9d35;}</style></defs><path class="a" d="M13.75,15.313a.687.687,0,0,1-.687.688H8.938a.687.687,0,0,1-.687-.687V13.25H0v6.188A2.115,2.115,0,0,0,2.063,21.5H19.938A2.115,2.115,0,0,0,22,19.438V13.25H13.75Zm6.188-8.937H16.5V4.313A2.115,2.115,0,0,0,14.438,2.25H7.563A2.115,2.115,0,0,0,5.5,4.313V6.375H2.063A2.115,2.115,0,0,0,0,8.438v3.438H22V8.438A2.115,2.115,0,0,0,19.938,6.375Zm-6.187,0H8.25V5h5.5Z" transform="translate(0 -2.25)"/></svg>