<svg xmlns="http://www.w3.org/2000/svg" width="14" height="14.583" viewBox="0 0 14 14.583"><defs><style>.a{fill:#0007d5;}</style></defs><path class="a" d="M8.444,7.056H9.833V4.972h2.083V3.583H9.833V1.5H8.444V3.583H6.361V4.972H8.444Zm-2.778,6.25a1.389,1.389,0,1,0,1.389,1.389A1.387,1.387,0,0,0,5.667,13.306Zm6.944,0A1.389,1.389,0,1,0,14,14.694,1.387,1.387,0,0,0,12.611,13.306ZM5.785,11.049l.021-.083.625-1.132H11.6a1.382,1.382,0,0,0,1.215-.715L15.5,4.25l-1.208-.667h-.007l-.764,1.389L11.6,8.444H6.729l-.09-.187L5.083,4.972l-.66-1.389L3.771,2.194H1.5V3.583H2.889l2.5,5.271-.937,1.7a1.343,1.343,0,0,0-.174.667,1.393,1.393,0,0,0,1.389,1.389H14V11.222H5.958A.176.176,0,0,1,5.785,11.049Z" transform="translate(-1.5 -1.5)"/></svg>