<svg xmlns="http://www.w3.org/2000/svg" width="55.959" height="44.044" viewBox="0 0 55.959 44.044"><defs><style>.a{fill:#5ca017;}</style></defs><path class="a" d="M54.1,51.662A6.016,6.016,0,0,0,49.682,49.8h-8.83v-.106a4.776,4.776,0,0,0-1.436-3.458A4.867,4.867,0,0,0,35.958,44.8H20a4.9,4.9,0,0,0-4.947,4.894V49.8H6.277a6.016,6.016,0,0,0-4.415,1.862A6.324,6.324,0,0,0,0,56.077v26.49a6.016,6.016,0,0,0,1.862,4.415,6.324,6.324,0,0,0,4.415,1.862H49.682A6.016,6.016,0,0,0,54.1,86.982a6.324,6.324,0,0,0,1.862-4.415V56.077A6.016,6.016,0,0,0,54.1,51.662Zm-.9,30.905H53.14a3.451,3.451,0,0,1-3.458,3.458H6.277a3.451,3.451,0,0,1-3.458-3.458V56.077a3.451,3.451,0,0,1,3.458-3.458H16.543a1.43,1.43,0,0,0,1.436-1.436V49.641a2,2,0,0,1,2.075-2.075h15.9a2,2,0,0,1,2.075,2.075v1.543a1.43,1.43,0,0,0,1.436,1.436H49.735a3.451,3.451,0,0,1,3.458,3.458Z" transform="translate(0 -44.8)"/><path class="a" d="M125.085,130.8a13.076,13.076,0,1,0,9.256,3.83A13.108,13.108,0,0,0,125.085,130.8Zm7.234,20.373a10.274,10.274,0,0,1-14.468,0,10.169,10.169,0,0,1-2.979-7.234,10.4,10.4,0,0,1,2.979-7.234,10.169,10.169,0,0,1,7.234-2.979,10.4,10.4,0,0,1,7.234,2.979,10.169,10.169,0,0,1,2.979,7.234A9.953,9.953,0,0,1,132.32,151.173Z" transform="translate(-97.106 -119.364)"/><circle class="a" cx="2.606" cy="2.606" r="2.606" transform="translate(44.31 11.383)"/></svg>