<svg xmlns="http://www.w3.org/2000/svg" width="15.18" height="11.25" viewBox="0 0 15.18 11.25"><defs><style>.a{fill:#707070;}</style></defs><g transform="translate(0 -55.2)"><g transform="translate(9.733 62.426)"><g transform="translate(0 0)"><path class="a" d="M276.846,258.4a1.283,1.283,0,0,0-1.442,0,1.269,1.269,0,0,0-.719-.221,1.287,1.287,0,0,0,0,2.574,1.269,1.269,0,0,0,.719-.221,1.287,1.287,0,0,0,1.442-2.133Zm-.288,1.438a.57.57,0,0,1-.8.071.5.5,0,0,1-.075-.075.344.344,0,0,0-.274-.125.353.353,0,0,0-.274.128.557.557,0,0,1-.441.206.576.576,0,0,1-.577-.573.572.572,0,0,1,1.015-.367.357.357,0,0,0,.5.053.377.377,0,0,0,.053-.053.571.571,0,0,1,.876.733Z" transform="translate(-273.4 -258.175)"/></g></g><g transform="translate(0 55.2)"><g transform="translate(0 0)"><path class="a" d="M15.166,59.629c0-.032.014-.068.014-.1s-.014-.068-.014-.1v-.762a1.515,1.515,0,0,0-1.524-1.506h-.434v-.431a1.515,1.515,0,0,0-1.5-1.527H1.509A1.521,1.521,0,0,0,0,56.727v6.259a1.5,1.5,0,0,0,1.5,1.506h.424v.431a1.53,1.53,0,0,0,1.52,1.527h10.2a1.535,1.535,0,0,0,1.524-1.527V61.3c0-.032.014-.068.014-.1s-.014-.068-.014-.1ZM1.922,58.664V63.78H1.509a.79.79,0,0,1-.8-.78V56.727a.809.809,0,0,1,.8-.815h10.2a.8.8,0,0,1,.79.815v.431H3.442A1.512,1.512,0,0,0,1.922,58.664Zm12.532,6.259a.819.819,0,0,1-.812.815H3.442a.814.814,0,0,1-.808-.815V61.537h11.82Zm0-4.1H2.634V59.9h11.82Zm0-1.638H2.634v-.523a.8.8,0,0,1,.808-.794h10.2a.8.8,0,0,1,.812.794v.523Z" transform="translate(0 -55.2)"/></g></g></g></svg>