<svg xmlns="http://www.w3.org/2000/svg" width="13.781" height="15.533" viewBox="0 0 13.781 15.533"><defs><style>.a{fill:#537729;}</style></defs><g transform="translate(-22.993 0)"><g transform="translate(22.993 0)"><g transform="translate(0 0)"><path class="a" d="M71.495,114.908H61.418a.4.4,0,0,0-.3.1.339.339,0,0,0-.1.3l1.036,9.021a1.972,1.972,0,0,0,1.971,1.733h5.018a1.971,1.971,0,0,0,1.991-1.792l.856-9a.339.339,0,0,0-.1-.259A.4.4,0,0,0,71.495,114.908Zm-1.255,9.32a1.155,1.155,0,0,1-1.195,1.036H64.027a1.135,1.135,0,0,1-1.175-1.016l-1-8.543h9.2Z" transform="translate(-59.566 -110.527)"/><path class="a" d="M36.375,1.792h-4.1V1.155A1.115,1.115,0,0,0,31.2,0h-2.57a1.115,1.115,0,0,0-1.136,1.094q0,.03,0,.061v.637h-4.1a.4.4,0,1,0,0,.8H36.375a.4.4,0,1,0,0-.8Zm-4.9-.637v.637H28.29V1.155A.319.319,0,0,1,28.629.8h2.509a.319.319,0,0,1,.34.3A.315.315,0,0,1,31.476,1.155Z" transform="translate(-22.993 0)"/></g></g></g></svg>