<svg xmlns="http://www.w3.org/2000/svg" width="21.177" height="18.612" viewBox="0 0 21.177 18.612"><defs><style>.a{fill:#487916;}</style></defs><path class="a" d="M6.823,12.408H18.075a.621.621,0,0,0,.6-.45l2.482-8.686a.62.62,0,0,0-.6-.791H5.392l-.443-2A.621.621,0,0,0,4.343,0H.62a.62.62,0,0,0,0,1.241H3.845l2.24,10.08a1.861,1.861,0,0,0,.739,3.569h11.25a.62.62,0,1,0,0-1.241H6.825a.62.62,0,0,1,0-1.241ZM19.734,3.722l-2.127,7.445H7.322L5.668,3.722Zm0,0"/><path class="a" d="M150,361.861A1.861,1.861,0,1,0,151.861,360,1.863,1.863,0,0,0,150,361.861Zm1.861-.62a.62.62,0,1,1-.62.62A.621.621,0,0,1,151.861,361.241Zm0,0" transform="translate(-143.796 -345.11)"/><path class="a" d="M362,361.861A1.861,1.861,0,1,0,363.861,360,1.863,1.863,0,0,0,362,361.861Zm1.861-.62a.62.62,0,1,1-.62.62A.621.621,0,0,1,363.861,361.241Zm0,0" transform="translate(-347.027 -345.11)"/></svg>