<svg xmlns="http://www.w3.org/2000/svg" width="16.023" height="19.112" viewBox="0 0 16.023 19.112"><defs><style>.a{fill:#487916;stroke:#487916;stroke-width:0.5px;}</style></defs><g transform="translate(0.256 0.25)"><g transform="translate(0 1.593)"><g transform="translate(0)"><path class="a" d="M58.113,89.644l-1.332-2.56a8.511,8.511,0,0,1-.939-3.913V80.929c0-3.452-2.436-6.262-5.429-6.262s-5.429,2.81-5.429,6.262v2.243a8.511,8.511,0,0,1-.939,3.913l-1.332,2.56a.507.507,0,0,0-.005.45.384.384,0,0,0,.338.227H57.78a.383.383,0,0,0,.338-.227A.507.507,0,0,0,58.113,89.644ZM43.73,89.427l.979-1.883a9.5,9.5,0,0,0,1.05-4.372V80.929c0-2.96,2.087-5.367,4.653-5.367s4.653,2.407,4.653,5.367v2.243a9.511,9.511,0,0,0,1.049,4.372l.98,1.883Z" transform="translate(-42.657 -74.667)"/></g></g><g transform="translate(6.845)"><g transform="translate(0)"><path class="a" d="M214.243,0a.911.911,0,0,0-.91.91v.91a.228.228,0,0,0,.455,0V.91a.455.455,0,0,1,.91,0v.91a.228.228,0,0,0,.455,0V.91A.911.911,0,0,0,214.243,0Z" transform="translate(-213.333)"/></g></g><g transform="translate(6.618 16.792)"><g transform="translate(0)"><path class="a" d="M204.788,426.792a.228.228,0,1,0-.393.23.683.683,0,1,1-1.182,0,.228.228,0,1,0-.393-.23,1.138,1.138,0,1,0,1.969,0Z" transform="translate(-202.666 -426.68)"/></g></g></g></svg>