<svg xmlns="http://www.w3.org/2000/svg" width="12.521" height="17.366" viewBox="0 0 12.521 17.366"><defs><style>.a{fill:#707070;}</style></defs><g transform="translate(-65.8)"><g transform="translate(65.8)"><path class="a" d="M76.661,7.385V4.635a4.611,4.611,0,0,0-1.377-3.313A4.465,4.465,0,0,0,72.114,0h-.059a4.624,4.624,0,0,0-4.6,4.635v2.75A1.878,1.878,0,0,0,65.8,9.274v6.178a1.9,1.9,0,0,0,1.889,1.914h8.744a1.9,1.9,0,0,0,1.889-1.914V9.274A1.887,1.887,0,0,0,76.661,7.385Zm-8.471-2.75h0A3.9,3.9,0,0,1,72.059.725h0a3.813,3.813,0,0,1,2.7,1.112,3.9,3.9,0,0,1,1.156,2.8V7.389h-.81V4.635a3.1,3.1,0,0,0-.917-2.227,2.985,2.985,0,0,0-2.11-.876h-.022A3.083,3.083,0,0,0,69,4.631V7.389h-.81Zm6.189,0V7.389H69.739V4.635a2.344,2.344,0,0,1,2.327-2.364h.022a2.258,2.258,0,0,1,1.594.663A2.373,2.373,0,0,1,74.378,4.635Zm3.24,10.828h0a1.167,1.167,0,0,1-1.167,1.167H67.7a1.167,1.167,0,0,1-1.167-1.167V9.292A1.167,1.167,0,0,1,67.7,8.125h8.748a1.167,1.167,0,0,1,1.167,1.167Z" transform="translate(-65.8)"/></g><g transform="translate(70.73 11.188)"><g transform="translate(0)"><path class="a" d="M202.3,304.861a1.327,1.327,0,1,0-1.642,1.642v1.031a.368.368,0,0,0,.736,0V306.5A1.324,1.324,0,0,0,202.3,304.861Zm-1.274.957a.593.593,0,1,1,.593-.593A.592.592,0,0,1,201.029,305.818Z" transform="translate(-199.7 -303.9)"/></g></g></g></svg>