<svg xmlns="http://www.w3.org/2000/svg" width="14.549" height="13.856" viewBox="0 0 14.549 13.856"><defs><style>.a{fill:#707070;}</style></defs><g transform="translate(0 -13.415)"><path class="a" d="M133.881,21.191a3.888,3.888,0,1,0-3.894-3.894A3.895,3.895,0,0,0,133.881,21.191Zm0-6.761a2.867,2.867,0,1,1-2.867,2.867A2.875,2.875,0,0,1,133.881,14.43Z" transform="translate(-126.63 0)"/><path class="a" d="M.514,346.325H14.036a.51.51,0,0,0,.514-.514,4.892,4.892,0,0,0-4.886-4.886H4.886A4.891,4.891,0,0,0,0,345.812.51.51,0,0,0,.514,346.325Zm4.372-4.372H9.664a3.856,3.856,0,0,1,3.822,3.345H1.063A3.866,3.866,0,0,1,4.886,341.953Z" transform="translate(0 -319.054)"/></g></svg>