<svg xmlns="http://www.w3.org/2000/svg" width="18.005" height="17.255" viewBox="0 0 18.005 17.255"><g transform="translate(0 -10.667)"><g transform="translate(0 22.671)"><path d="M17.255,353.876h-2a2.609,2.609,0,0,0-5.007,0H.75a.75.75,0,0,0,0,1.5h9.5a2.609,2.609,0,0,0,5.007,0h2a.75.75,0,0,0,0-1.5Zm-4.5,1.876a1.125,1.125,0,1,1,1.125-1.125A1.127,1.127,0,0,1,12.754,355.751Z" transform="translate(0 -352)"/></g><g transform="translate(0 10.667)"><g transform="translate(0 0)"><path d="M17.255,12.543h-2a2.609,2.609,0,0,0-5.007,0H.75a.75.75,0,1,0,0,1.5h9.5a2.609,2.609,0,0,0,5.007,0h2a.75.75,0,0,0,0-1.5Zm-4.5,1.876a1.125,1.125,0,1,1,1.125-1.125A1.127,1.127,0,0,1,12.754,14.418Z" transform="translate(0 -10.667)"/></g></g><g transform="translate(0 16.669)"><path d="M17.255,183.21h-9.5a2.609,2.609,0,0,0-5.007,0h-2a.75.75,0,1,0,0,1.5h2a2.609,2.609,0,0,0,5.007,0h9.5a.75.75,0,0,0,0-1.5Zm-12,1.876a1.125,1.125,0,1,1,1.125-1.125A1.127,1.127,0,0,1,5.252,185.085Z" transform="translate(0 -181.334)"/></g></g></svg>