<svg xmlns="http://www.w3.org/2000/svg" width="13.843" height="17.473" viewBox="0 0 13.843 17.473"><path d="M9.916.135A.423.423,0,0,0,9.612,0H2.8A2.306,2.306,0,0,0,.5,2.292v12.89a2.306,2.306,0,0,0,2.3,2.292h9.251a2.306,2.306,0,0,0,2.3-2.292V4.946a.454.454,0,0,0-.122-.3Zm.122,1.355,2.883,3.026H11.047a1,1,0,0,1-1.009-1Zm2.009,15.139H2.8a1.462,1.462,0,0,1-1.452-1.448V2.292A1.462,1.462,0,0,1,2.8.844h6.4V3.512A1.846,1.846,0,0,0,11.047,5.36H13.5v9.821A1.459,1.459,0,0,1,12.047,16.629Zm0,0" transform="translate(-0.5)"/><path d="M96.541,401.934H89.594a.422.422,0,1,0,0,.844h6.951a.422.422,0,1,0,0-.844Zm0,0" transform="translate(-86.146 -388.217)"/><path d="M119.119,173.661l1.739-1.87V176.4a.422.422,0,1,0,.844,0v-4.609l1.739,1.87a.421.421,0,0,0,.616-.574l-2.473-2.655a.419.419,0,0,0-.616,0l-2.473,2.655a.421.421,0,0,0,.021.6A.431.431,0,0,0,119.119,173.661Zm0,0" transform="translate(-114.359 -164.485)"/></svg>