<svg xmlns="http://www.w3.org/2000/svg" width="21.516" height="21.469" viewBox="0 0 21.516 21.469"><defs><style>.a{fill:#666;}</style></defs><g transform="translate(0 12.103)"><path class="a" d="M5.715,289.5,0,288.557v8.422l5.715.945,5.715-.945v-8.422Zm-.63,7.04-3.824-.632v-5.866l3.824.632Zm5.085-.632-3.824.632v-5.866l3.824-.632Z" transform="translate(0 -288.557)"/></g><g transform="translate(10.085 0)"><path class="a" d="M245.715,1.5,240,.557V8.979l5.715.945,5.715-.945V.557Zm-.63,7.04-3.824-.632V2.043l3.824.632Zm5.085-.632-3.824.632V2.675l3.824-.632Z" transform="translate(-240 -0.557)"/></g><g transform="translate(0 2.106)"><g transform="translate(0 0)"><path class="a" d="M9.011,52.594,7.1,50.679v1.289A7.349,7.349,0,0,0,0,59.317H1.261A6.1,6.1,0,0,1,7.1,53.23v1.278Z" transform="translate(0 -50.679)"/></g></g><g transform="translate(12.505 10.744)"><path class="a" d="M305.316,256.24a6.1,6.1,0,0,1-5.837,6.087v-1.278l-1.914,1.914,1.914,1.915v-1.289a7.349,7.349,0,0,0,7.1-7.349Z" transform="translate(-297.566 -256.24)"/></g></svg>