<svg xmlns="http://www.w3.org/2000/svg" width="400" height="38.504" viewBox="0 0 400 38.504"><path d="M39.992,7.541V7.023H24.828v.518q3,.259,4.192,1.6a4.1,4.1,0,0,1,1.061,2.381,26.48,26.48,0,0,1,.181,3.26,29.231,29.231,0,0,1-.207,3.519,6.375,6.375,0,0,1-.621,2.381,7.043,7.043,0,0,1-3.39,2.769,12.422,12.422,0,0,1-4.632.854,13.813,13.813,0,0,1-6.159-1.32,12.963,12.963,0,0,1-4.554-3.7A16.933,16.933,0,0,1,7.853,13.57,26.036,26.036,0,0,1,6.87,6.2,23.543,23.543,0,0,1,7.9-.817a19.315,19.315,0,0,1,2.95-5.9,14.669,14.669,0,0,1,4.658-4.088,12.446,12.446,0,0,1,6.159-1.527,14.834,14.834,0,0,1,5.8,1.087A12.232,12.232,0,0,1,31.711-8.4a16.091,16.091,0,0,1,2.432,3.416,17.911,17.911,0,0,1,1.708,4.4h.621V-11.866h-.466q-.673.88-1.139,1.5t-.569.621a5.212,5.212,0,0,1-.983-.543,16.665,16.665,0,0,0-2.51-1.19,27.836,27.836,0,0,0-4.011-1.19,24.807,24.807,0,0,0-5.486-.543,23.346,23.346,0,0,0-8.8,1.475A18.667,18.667,0,0,0,6.4-7.83,18.335,18.335,0,0,0,3.48-4.207,19.79,19.79,0,0,0,1.668-.429,20.223,20.223,0,0,0,.763,3.116,19.836,19.836,0,0,0,.5,6.092a21.157,21.157,0,0,0,1.423,7.944,16.3,16.3,0,0,0,4.088,6,17.53,17.53,0,0,0,6.547,3.726,28.279,28.279,0,0,0,8.8,1.268,24.3,24.3,0,0,0,4.968-.518,32.244,32.244,0,0,0,4.528-1.268,32.21,32.21,0,0,0,3.467-1.475,11.361,11.361,0,0,0,1.785-1.035V13.182q0-1.19.052-2.381a3.653,3.653,0,0,1,.414-1.76,2.687,2.687,0,0,1,1.5-1.061A10.039,10.039,0,0,1,39.992,7.541ZM84.4-11.97v-.518H71.561v.518A8.658,8.658,0,0,1,75.313-10.7,4.83,4.83,0,0,1,77.1-8.347a5.6,5.6,0,0,1,.311,1.371q.1.854.155,1.837t.078,2.07q.026,1.087.026,2.122v8.8q0,1.76-.129,3.6a24.746,24.746,0,0,1-.518,3.6,13.532,13.532,0,0,1-1.19,3.312A9.207,9.207,0,0,1,73.657,21.1a9.826,9.826,0,0,1-3.416,1.863,16.116,16.116,0,0,1-4.994.673,11.728,11.728,0,0,1-4.606-.854,9.368,9.368,0,0,1-3.416-2.432,11.215,11.215,0,0,1-2.174-3.83,16.192,16.192,0,0,1-.828-4.994q0-1.242-.026-2.355t-.026-2.3v-10.3q0-.983.026-2.018t.078-2.381A4.131,4.131,0,0,1,54.793-9.8a3.686,3.686,0,0,1,1.139-1.216,4.884,4.884,0,0,1,1.5-.647,15.425,15.425,0,0,1,1.553-.311v-.518H43.563v.518a10.514,10.514,0,0,1,2.407.543,4.1,4.1,0,0,1,1.785,1.268,2.389,2.389,0,0,1,.466,1.009A10.621,10.621,0,0,1,48.453-7.7q.078.8.078,1.734V2.78q0,2.846-.026,5.175t-.026,3.778q0,.621.078,1.889a13.065,13.065,0,0,0,.518,2.795,14.111,14.111,0,0,0,1.346,3.105,10.274,10.274,0,0,0,2.562,2.9,12.534,12.534,0,0,0,4.218,2.1,21.942,21.942,0,0,0,6.288.776,21.752,21.752,0,0,0,6.366-.8A12.278,12.278,0,0,0,74.1,22.317a10.344,10.344,0,0,0,2.562-3.053,14.314,14.314,0,0,0,1.32-3.364,17.031,17.031,0,0,0,.492-3.183q.078-1.5.129-2.484.1-3.467.181-6.21T78.91-.947q0-1.19.052-2.407t.155-2.3q.1-1.087.233-1.915a5.442,5.442,0,0,1,.285-1.19,4.7,4.7,0,0,1,1.734-2.225A7.353,7.353,0,0,1,84.4-11.97Zm44.3,0v-.518H115.862v.518a9.086,9.086,0,0,1,3.8,1.268A4.734,4.734,0,0,1,121.5-8.347a9.333,9.333,0,0,1,.466,2.976q.052,1.889.052,3.959v17.6L97.489-12.487H86.983v.518a13.9,13.9,0,0,1,1.734.336,5.146,5.146,0,0,1,1.682.776,4.765,4.765,0,0,1,1.346,1.5A6,6,0,0,1,92.469-6.9q.052,1.5.052,2.536V1.952q0,3.467-.052,6.5T92.314,13.7q-.1,2.95-.311,5.072a7.092,7.092,0,0,1-.932,3.209,4.042,4.042,0,0,1-1.967,1.63,10.159,10.159,0,0,1-2.484.647v.518H99.352v-.518a10.713,10.713,0,0,1-3.338-.854,3.739,3.739,0,0,1-1.785-1.785,8.552,8.552,0,0,1-.647-3.157q-.129-2.122-.129-4.761V-8.14q3.519,3.933,6.676,7.608T106.572,7q3.286,3.856,6.909,8.1t8.022,9.316a1.429,1.429,0,0,0,.932.518.527.527,0,0,0,.388-.129.455.455,0,0,0,.129-.336V21.1q0-1.863-.026-3.752t-.026-3.7V10.336q0-3.467.078-6.5t.181-5.253q.1-2.381.207-4.477a8.71,8.71,0,0,1,.466-2.872,4.579,4.579,0,0,1,1.785-2.225A7.8,7.8,0,0,1,128.7-11.97Zm40.316,9.057L167.356-13q-1.19.362-2.3.6a16.6,16.6,0,0,1-2.821.285q-1.967,0-3.519.026l-3,.052q-1.449.026-3,.026h-9.833q-1.449,0-3-.026t-3.519-.078a25.117,25.117,0,0,1-2.924-.207q-1.009-.155-2.2-.414L129.68-2.913l.466.155A11.481,11.481,0,0,1,131-4.673a20.832,20.832,0,0,1,1.139-1.837q.6-.854,1.139-1.578a7.273,7.273,0,0,1,.957-1.087,6.2,6.2,0,0,1,2.355-1.449,11.6,11.6,0,0,1,3.235-.466q.983,0,1.734-.026t1.423-.026H146.4V8.938q0,1.553-.026,3t-.052,2.639q-.026,1.19-.026,1.915,0,.828-.026,1.708t-.1,1.63a12.374,12.374,0,0,1-.207,1.346,1.714,1.714,0,0,1-.388.854,5.358,5.358,0,0,1-2.432,1.708,15.619,15.619,0,0,1-2.588.518v.518h16.82v-.518a25.822,25.822,0,0,1-2.562-.621,3.875,3.875,0,0,1-2.2-1.553,3.785,3.785,0,0,1-.492-1.941q-.078-1.371-.078-2.872V-2.965q0-2.432.026-4.658t.026-3.519H155.5q.725,0,1.449.026t1.708.026a14.4,14.4,0,0,1,3.235.388,5.423,5.423,0,0,1,2.355,1.371,7.716,7.716,0,0,1,.983,1.113q.569.75,1.164,1.63T167.563-4.7q.569,1.009.983,1.941Zm40.574,27.688v-.518a9.993,9.993,0,0,1-4.244-1.6,15.875,15.875,0,0,1-3.726-3.933q-1.242-1.76-2.821-4.037t-2.924-4.244a18.845,18.845,0,0,0-1.6-1.967,6.645,6.645,0,0,0-1.708-1.346V6.972a21.079,21.079,0,0,0,3.26-1.4,11.393,11.393,0,0,0,2.717-1.992A9.166,9.166,0,0,0,200.4.891a8.179,8.179,0,0,0,.7-3.442A8.924,8.924,0,0,0,199.7-7.7a9.955,9.955,0,0,0-3.674-3.235,12.3,12.3,0,0,0-4.917-1.4q-2.691-.207-6.159-.207h-3.623q-2.225,0-4.451.026t-3.985.026h-2.122v.518a17.333,17.333,0,0,1,2.355.492,3.887,3.887,0,0,1,1.734,1.113,2.2,2.2,0,0,1,.492,1.009,9.706,9.706,0,0,1,.259,1.553q.078.854.1,1.811T175.74-4.1V8.99q0,1.553-.026,3.028t-.052,2.717q-.026,1.242-.026,1.967,0,.828-.052,1.708t-.129,1.656a9.82,9.82,0,0,1-.233,1.4,2.349,2.349,0,0,1-.414.932,4.041,4.041,0,0,1-1.863,1.242,14.537,14.537,0,0,1-2.484.621v.518h16.561v-.518a7.29,7.29,0,0,1-3.312-.8,4.563,4.563,0,0,1-1.6-1.371,3.781,3.781,0,0,1-.569-1.967q-.052-1.19-.1-2.846-.052-1.708-.052-4.192V7.23q.725.052,1.19.052a7.922,7.922,0,0,1,1.5.207,5.567,5.567,0,0,1,2.562,1.294,21.1,21.1,0,0,1,2.251,2.225q1.242,1.449,2.148,2.614t1.682,2.3q.776,1.139,1.527,2.3t1.734,2.614q.828,1.19,1.216,1.785a10.107,10.107,0,0,0,.647.906q.259.311.466.543t.673.7ZM195.148-2.861a9.933,9.933,0,0,1-.362,2.691,8.259,8.259,0,0,1-1.113,2.407,8.153,8.153,0,0,1-1.941,1.992,9.528,9.528,0,0,1-2.846,1.4,16.2,16.2,0,0,1-3.545.75q-1.837.181-3.959.181V.865q0-2.122.026-4.4t.078-4.088q.052-1.19.078-1.837t.052-1.009a4.209,4.209,0,0,1,.078-.6q.052-.233.1-.543.362-.052,1.035-.1t1.76-.052a15.469,15.469,0,0,1,2.872.259,11.257,11.257,0,0,1,2.614.828,8.927,8.927,0,0,1,3.778,3.209A8.349,8.349,0,0,1,195.148-2.861Zm35.606,27.636v-.518a7,7,0,0,0,1.993-.466,3.562,3.562,0,0,0,1.139-.725,1.568,1.568,0,0,0,.492-1.19,6.789,6.789,0,0,0-.285-1.527q-.285-1.061-.8-2.588t-1.19-3.39q-.673-1.863-1.449-3.881H216.884q-.776,1.967-1.5,3.752t-1.449,3.6a13.08,13.08,0,0,0-1.087,3.933,1.559,1.559,0,0,0,.414,1.113,3.207,3.207,0,0,0,1.061.725,5.978,5.978,0,0,0,1.4.414q.75.129,1.423.233v.518H206.119v-.569a5.748,5.748,0,0,0,2.3-.725,5.133,5.133,0,0,0,1.113-.776A11.258,11.258,0,0,0,210.725,21a37.36,37.36,0,0,0,2.018-3.985q1.087-2.432,2.432-5.538l2.769-6.392q1.423-3.286,2.821-6.624T223.4-7.778l-.518-1.139a8.444,8.444,0,0,0,1.682-.983,9.9,9.9,0,0,0,1.32-1.19,10.721,10.721,0,0,0,.957-1.19q.388-.569.6-.932h.414q1.6,4.3,3.053,8.151t2.769,7.427Q235,5.937,236.24,9.275t2.484,6.6q.569,1.6,1.061,2.665t1.113,2.407a7.064,7.064,0,0,0,.466.725,6.559,6.559,0,0,0,.957,1.061,5.887,5.887,0,0,0,1.475.957,5.378,5.378,0,0,0,2.07.466v.621Zm-6.78-31.362q-.31.673-.906,2.122T221.593-.947q-.88,2.07-1.941,4.684T217.35,9.4h12.887q-.88-2.329-1.785-4.658T226.691.27q-.854-2.148-1.553-3.933T223.974-6.588ZM286.751,5.626A19.228,19.228,0,0,0,285.9-.351a16.888,16.888,0,0,0-2.277-4.606A15.808,15.808,0,0,0,280.281-8.4a19.454,19.454,0,0,0-4.089-2.381,17.37,17.37,0,0,0-3.364-1.087,29.181,29.181,0,0,0-3.416-.518q-1.708-.155-3.416-.155h-3.312q-5.8,0-9.885.026t-6.262.026v.518a12.073,12.073,0,0,1,2.432.518,4.07,4.07,0,0,1,1.863,1.294,2.389,2.389,0,0,1,.466,1.009,10.622,10.622,0,0,1,.233,1.449q.078.8.078,1.734V8.99q0,1.553-.026,3.028t-.052,2.717q-.026,1.242-.026,1.967,0,.828-.052,1.708t-.155,1.656q-.1.776-.233,1.4a1.745,1.745,0,0,1-.388.88,4.9,4.9,0,0,1-1.837,1.242,9.171,9.171,0,0,1-2.51.673v.518h18.89a37.39,37.39,0,0,0,4.917-.336,24.887,24.887,0,0,0,4.917-1.164,20.258,20.258,0,0,0,4.5-2.225,15,15,0,0,0,3.726-3.519,16.635,16.635,0,0,0,2.536-5.072A22.717,22.717,0,0,0,286.751,5.626Zm-6.366.1a21.887,21.887,0,0,1-2.769,11.412,13.728,13.728,0,0,1-8.358,6.236,12.967,12.967,0,0,1-2.562.492q-1.371.129-2.665.129a16.8,16.8,0,0,1-2.976-.285,4.8,4.8,0,0,1-2.614-1.32,2.59,2.59,0,0,1-.543-.957,6.876,6.876,0,0,1-.336-1.449q-.1-.8-.181-1.656t-.078-1.578q-.052-1.708-.052-4.4V6.3q0-6.159.052-10.609t.311-6.987a5.265,5.265,0,0,1,.957-.155q.6-.052,1.294-.129t1.423-.1q.725-.026,1.346-.026a30.211,30.211,0,0,1,3.053.129q1.242.129,2.277.336a12.119,12.119,0,0,1,4.968,2.07,16.583,16.583,0,0,1,3.933,3.907,18.738,18.738,0,0,1,2.588,5.149A18.685,18.685,0,0,1,280.385,5.73Zm44.3,9.16-.569-.155a35.526,35.526,0,0,1-2.51,3.8A17.048,17.048,0,0,1,319.1,21.2a10.724,10.724,0,0,1-2.691,1.682,11.345,11.345,0,0,1-3.053.8q-1.5.207-2.872.259T308.228,24a22.073,22.073,0,0,1-3.83-.311,3.259,3.259,0,0,1-2.225-1.035,4.956,4.956,0,0,1-.6-2.2q-.129-1.475-.181-3.131,0-.518-.026-1.268t-.026-1.578V8.266a16.183,16.183,0,0,1,.1-2.122h2.381q.518,0,1.035.026t1.294.078a8.9,8.9,0,0,1,2.717.569,6.867,6.867,0,0,1,1.992,1.19,9.077,9.077,0,0,1,1.785,2.639,17.661,17.661,0,0,1,1.268,3.416h.621V-2.24h-.621a24.619,24.619,0,0,1-.7,2.614,7.344,7.344,0,0,1-1.035,2.044,5.681,5.681,0,0,1-1.682,1.5,9.009,9.009,0,0,1-2.588.983,11.626,11.626,0,0,1-1.682.233q-1.009.078-2.018.129t-1.785.052H301.4V4.746q0-.466-.026-1.32t-.026-2.2V-2.085q0-3.416.078-6T301.6-11.5a14.538,14.538,0,0,1,1.682-.181q1.164-.078,2.251-.078a45.792,45.792,0,0,1,5.8.311,12.523,12.523,0,0,1,3.26.725q3.674,1.811,7.866,7.038l.518-.259-3.519-8.539H290.891v.518a21.524,21.524,0,0,1,2.277.44,3.53,3.53,0,0,1,1.656,1.061,2.2,2.2,0,0,1,.492,1.009,9.724,9.724,0,0,1,.259,1.578q.078.88.1,1.863T295.7-4.1V8.99q0,1.553-.026,3.028t-.052,2.717q-.026,1.242-.026,1.967,0,.828-.052,1.682a15.694,15.694,0,0,1-.181,1.63q-.129.776-.285,1.371a2.333,2.333,0,0,1-.414.906,4.92,4.92,0,0,1-1.837,1.294,10.51,10.51,0,0,1-2.407.673v.518H322.1Zm41.661,9.885v-.518a9.993,9.993,0,0,1-4.244-1.6,15.874,15.874,0,0,1-3.726-3.933q-1.242-1.76-2.821-4.037t-2.924-4.244a18.843,18.843,0,0,0-1.6-1.967,6.644,6.644,0,0,0-1.708-1.346V6.972a21.078,21.078,0,0,0,3.26-1.4A11.393,11.393,0,0,0,355.3,3.582,9.166,9.166,0,0,0,357.161.891a8.179,8.179,0,0,0,.7-3.442,8.924,8.924,0,0,0-1.4-5.149,9.955,9.955,0,0,0-3.674-3.235,12.3,12.3,0,0,0-4.917-1.4q-2.691-.207-6.159-.207H338.09q-2.225,0-4.451.026t-3.985.026h-2.122v.518a17.333,17.333,0,0,1,2.355.492,3.887,3.887,0,0,1,1.734,1.113,2.2,2.2,0,0,1,.492,1.009,9.7,9.7,0,0,1,.259,1.553q.078.854.1,1.811T332.5-4.1V8.99q0,1.553-.026,3.028t-.052,2.717q-.026,1.242-.026,1.967,0,.828-.052,1.708t-.129,1.656a9.82,9.82,0,0,1-.233,1.4,2.349,2.349,0,0,1-.414.932,4.041,4.041,0,0,1-1.863,1.242,14.537,14.537,0,0,1-2.484.621v.518h16.561v-.518a7.29,7.29,0,0,1-3.312-.8,4.563,4.563,0,0,1-1.6-1.371,3.781,3.781,0,0,1-.569-1.967q-.052-1.19-.1-2.846-.052-1.708-.052-4.192V7.23q.725.052,1.19.052a7.922,7.922,0,0,1,1.5.207,5.567,5.567,0,0,1,2.562,1.294,21.105,21.105,0,0,1,2.251,2.225q1.242,1.449,2.148,2.614t1.682,2.3q.776,1.139,1.527,2.3t1.734,2.614q.828,1.19,1.216,1.785a10.1,10.1,0,0,0,.647.906q.259.311.466.543t.673.7ZM351.908-2.861a9.935,9.935,0,0,1-.362,2.691,8.258,8.258,0,0,1-1.113,2.407,8.154,8.154,0,0,1-1.941,1.992,9.528,9.528,0,0,1-2.846,1.4,16.2,16.2,0,0,1-3.545.75q-1.837.181-3.959.181V.865q0-2.122.026-4.4t.078-4.088q.052-1.19.078-1.837t.052-1.009a4.214,4.214,0,0,1,.078-.6q.052-.233.1-.543.362-.052,1.035-.1t1.76-.052a15.469,15.469,0,0,1,2.872.259,11.256,11.256,0,0,1,2.613.828,8.927,8.927,0,0,1,3.778,3.209A8.349,8.349,0,0,1,351.908-2.861ZM400.5,13.13l-.569-.207a28.74,28.74,0,0,1-5.926,7.349,13.557,13.557,0,0,1-7.53,3.364q-1.5.155-2.872.207t-2.251.052h-4.192q-2.07,0-4.658-.052l26.135-35.917-.155-.311H381.925q-3.054,0-5.693-.026t-4.554-.052q-1.915-.026-2.639-.078L365.26-1.516l.569.207a23.769,23.769,0,0,1,1.423-2.044q.854-1.113,1.785-2.2t1.837-1.992q.906-.906,1.527-1.423a12.279,12.279,0,0,1,2.872-1.708,10.37,10.37,0,0,1,3.545-.776q.983-.052,2.665-.078t3.545-.026h6.521L365.364,24.413l.207.362h31.207Z" transform="translate(-0.504 13.212)" fill="#487916"/></svg>